 <svg
        className="absolute bottom-0 left-0 right-0 w-full"
        xmlns="http://www.w3.org/2000/svg"
        viewBox="0 0 1440 200"
      >
        <path
          fill="#0099ff"
          fill-opacity="1"
          d="M0,96L40,106.7C80,117,160,139,240,149.3C320,160,400,160,480,149.3C560,139,640,117,720,106.7C800,96,880,96,960,106.7C1040,117,1120,139,1200,133.3C1280,128,1360,96,1400,80L1440,64L1440,200L1400,200C1360,200,1280,200,1200,200C1120,200,1040,200,960,200C880,200,800,200,720,200C640,200,560,200,480,200C400,200,320,200,240,200C160,200,80,200,40,200L0,200Z"
        ></path>
      </svg>